<svg width="52" height="52" viewBox="0 0 52 52" fill="none" xmlns="http://www.w3.org/2000/svg">
<path d="M5 48V19.3276C5 18.6997 5.29487 18.1082 5.7963 17.7303L24.7963 3.41149C25.5089 2.87445 26.4911 2.87445 27.2037 3.41149L46.2037 17.7303C46.7051 18.1082 47 18.6997 47 19.3276V48C47 49.1046 46.1046 50 45 50H35.75C34.6454 50 33.75 49.1046 33.75 48V35.7778C33.75 32.4641 31.0637 29.7778 27.75 29.7778H24.25C20.9363 29.7778 18.25 32.4641 18.25 35.7778V48C18.25 49.1046 17.3546 50 16.25 50H7C5.89543 50 5 49.1046 5 48Z" stroke="black" stroke-width="4"/>
</svg>
