<svg width="383" height="89" viewBox="0 0 383 89" fill="none" xmlns="http://www.w3.org/2000/svg">
<path d="M9.76398 65C7.92398 65 6.42131 64.632 5.25598 63.896C4.09064 63.0987 3.29331 62.056 2.86398 60.768C2.49598 59.4187 2.49598 57.9467 2.86398 56.352C3.29331 54.7574 4.15198 53.1627 5.43998 51.568L38.928 7.68402V12.008H8.65998C6.63598 12.008 5.07198 11.4867 3.96798 10.444C2.92531 9.40135 2.40398 7.92935 2.40398 6.02802C2.40398 4.12668 2.92531 2.68535 3.96798 1.70402C5.07198 0.661348 6.63598 0.140015 8.65998 0.140015H45.644C47.5453 0.140015 49.048 0.538681 50.152 1.33602C51.3173 2.07202 52.1146 3.08402 52.544 4.37201C52.9733 5.66002 52.9733 7.13202 52.544 8.78802C52.1146 10.3827 51.256 11.9773 49.968 13.572L16.48 57.364V53.132H48.22C50.244 53.132 51.7773 53.6534 52.82 54.696C53.924 55.6774 54.476 57.1187 54.476 59.02C54.476 60.9827 53.924 62.4854 52.82 63.528C51.7773 64.5094 50.244 65 48.22 65H9.76398Z" fill="#FFD93C"/>
<path d="M75.3111 66.012C71.9991 66.012 69.0244 65.368 66.3871 64.08C63.7498 62.792 61.6951 61.044 60.2231 58.836C58.7511 56.628 58.0151 54.144 58.0151 51.384C58.0151 48.072 58.8738 45.4654 60.5911 43.564C62.3084 41.6014 65.0991 40.2213 68.9631 39.424C72.8271 38.5653 77.9484 38.136 84.3271 38.136H89.2031V45.312H84.4191C81.2911 45.312 78.7458 45.496 76.7831 45.864C74.8818 46.1707 73.5018 46.7227 72.6431 47.52C71.8458 48.3174 71.4471 49.4214 71.4471 50.832C71.4471 52.5494 72.0298 53.96 73.1951 55.064C74.4218 56.168 76.1698 56.72 78.4391 56.72C80.2178 56.72 81.7818 56.3214 83.1311 55.524C84.5418 54.6654 85.6458 53.5307 86.4431 52.12C87.2404 50.648 87.6391 48.992 87.6391 47.152V36.572C87.6391 33.8734 87.0258 31.972 85.7991 30.868C84.5724 29.7027 82.4871 29.12 79.5431 29.12C77.8871 29.12 76.0778 29.3347 74.1151 29.764C72.2138 30.132 70.0978 30.776 67.7671 31.696C66.4178 32.3094 65.2218 32.4627 64.1791 32.156C63.1364 31.788 62.3391 31.1747 61.7871 30.316C61.2351 29.396 60.9591 28.4147 60.9591 27.372C60.9591 26.268 61.2658 25.2254 61.8791 24.244C62.4924 23.2014 63.5044 22.4347 64.9151 21.944C67.7978 20.7787 70.4964 19.9814 73.0111 19.552C75.5871 19.1227 77.9484 18.908 80.0951 18.908C84.8178 18.908 88.6818 19.6133 91.6871 21.024C94.7538 22.3733 97.0538 24.4893 98.5871 27.372C100.12 30.1934 100.887 33.8427 100.887 38.32V58.744C100.887 61.0134 100.335 62.7614 99.2311 63.988C98.1271 65.2147 96.5324 65.828 94.4471 65.828C92.3618 65.828 90.7364 65.2147 89.5711 63.988C88.4671 62.7614 87.9151 61.0134 87.9151 58.744V55.34L88.5591 55.892C88.1911 57.9774 87.3938 59.7867 86.1671 61.32C85.0018 62.792 83.4991 63.9574 81.6591 64.816C79.8191 65.6134 77.7031 66.012 75.3111 66.012Z" fill="#FFD93C"/>
<path d="M116.678 45.772C115.145 45.772 113.826 45.2507 112.722 44.208C111.679 43.1654 111.158 41.8773 111.158 40.344C111.158 38.7494 111.679 37.4307 112.722 36.388C113.826 35.3453 115.145 34.824 116.678 34.824H135.63C137.163 34.824 138.451 35.3453 139.494 36.388C140.598 37.4307 141.15 38.7494 141.15 40.344C141.15 41.8773 140.598 43.1654 139.494 44.208C138.451 45.2507 137.163 45.772 135.63 45.772H116.678Z" fill="#FFD93C"/>
<path d="M158.946 65.828C156.676 65.828 154.928 65.2147 153.702 63.988C152.536 62.7614 151.954 61.0134 151.954 58.744V26.084C151.954 23.8147 152.536 22.0974 153.702 20.932C154.928 19.7054 156.615 19.092 158.762 19.092C160.97 19.092 162.656 19.7054 163.822 20.932C164.987 22.0974 165.57 23.8147 165.57 26.084V31.972L164.558 28.292C165.784 25.4707 167.686 23.2013 170.262 21.484C172.838 19.7667 175.874 18.908 179.37 18.908C182.866 18.908 185.779 19.736 188.11 21.392C190.44 23.048 192.096 25.5933 193.078 29.028H191.79C193.139 25.9 195.194 23.4467 197.954 21.668C200.775 19.828 203.995 18.908 207.614 18.908C211.11 18.908 213.962 19.6133 216.17 21.024C218.439 22.3733 220.126 24.4587 221.23 27.28C222.334 30.04 222.886 33.5667 222.886 37.86V58.744C222.886 61.0134 222.272 62.7614 221.046 63.988C219.88 65.2147 218.194 65.828 215.986 65.828C213.716 65.828 211.968 65.2147 210.742 63.988C209.576 62.7614 208.994 61.0134 208.994 58.744V38.32C208.994 35.3147 208.503 33.1374 207.522 31.788C206.602 30.3774 205.007 29.672 202.738 29.672C200.1 29.672 198.046 30.592 196.574 32.432C195.102 34.272 194.366 36.8787 194.366 40.252V58.744C194.366 61.0134 193.752 62.7614 192.526 63.988C191.36 65.2147 189.674 65.828 187.466 65.828C185.258 65.828 183.54 65.2147 182.314 63.988C181.087 62.7614 180.474 61.0134 180.474 58.744V38.32C180.474 35.3147 179.983 33.1374 179.002 31.788C178.082 30.3774 176.487 29.672 174.218 29.672C171.58 29.672 169.526 30.592 168.054 32.432C166.582 34.272 165.846 36.8787 165.846 40.252V58.744C165.846 63.4667 163.546 65.828 158.946 65.828Z" fill="#FFD93C"/>
<path d="M256.987 66.012C251.651 66.012 247.051 65.0614 243.187 63.16C239.385 61.1974 236.441 58.468 234.355 54.972C232.331 51.4147 231.319 47.244 231.319 42.46C231.319 37.7987 232.301 33.72 234.263 30.224C236.226 26.6667 238.955 23.9067 242.451 21.944C246.009 19.92 250.026 18.908 254.503 18.908C257.754 18.908 260.698 19.46 263.335 20.564C265.973 21.6067 268.242 23.14 270.143 25.164C272.045 27.1267 273.486 29.5494 274.467 32.432C275.449 35.2534 275.939 38.412 275.939 41.908C275.939 43.0734 275.571 43.9627 274.835 44.576C274.099 45.128 273.026 45.404 271.615 45.404H242.727V38.228H265.911L264.439 39.516C264.439 37.0014 264.071 34.916 263.335 33.26C262.599 31.5427 261.526 30.2547 260.115 29.396C258.766 28.5373 257.079 28.108 255.055 28.108C252.786 28.108 250.854 28.6294 249.259 29.672C247.665 30.7147 246.438 32.2174 245.579 34.18C244.721 36.1427 244.291 38.504 244.291 41.264V42C244.291 46.6614 245.365 50.096 247.511 52.304C249.719 54.512 252.97 55.616 257.263 55.616C258.735 55.616 260.422 55.432 262.323 55.064C264.225 54.696 266.003 54.1134 267.659 53.316C269.07 52.6414 270.327 52.4267 271.431 52.672C272.535 52.856 273.394 53.3467 274.007 54.144C274.621 54.9414 274.958 55.8614 275.019 56.904C275.142 57.9467 274.927 58.9894 274.375 60.032C273.823 61.0134 272.903 61.8414 271.615 62.516C269.53 63.6814 267.169 64.54 264.531 65.092C261.955 65.7054 259.441 66.012 256.987 66.012Z" fill="#FFD93C"/>
<path d="M291.012 65.828C288.742 65.828 286.994 65.2147 285.768 63.988C284.602 62.7614 284.02 61.0134 284.02 58.744V26.084C284.02 23.8147 284.602 22.0974 285.768 20.932C286.994 19.7054 288.681 19.092 290.828 19.092C293.036 19.092 294.722 19.7054 295.888 20.932C297.053 22.0974 297.636 23.8147 297.636 26.084V31.328L296.624 28.292C298.034 25.2867 300.12 22.9867 302.88 21.392C305.701 19.736 308.89 18.908 312.448 18.908C316.066 18.908 319.041 19.6133 321.372 21.024C323.702 22.3733 325.45 24.4587 326.616 27.28C327.781 30.04 328.364 33.5667 328.364 37.86V58.744C328.364 61.0134 327.75 62.7614 326.524 63.988C325.358 65.2147 323.641 65.828 321.372 65.828C319.164 65.828 317.446 65.2147 316.22 63.988C315.054 62.7614 314.472 61.0134 314.472 58.744V38.504C314.472 35.376 313.889 33.1374 312.724 31.788C311.62 30.3774 309.902 29.672 307.572 29.672C304.628 29.672 302.266 30.592 300.488 32.432C298.77 34.272 297.912 36.7254 297.912 39.792V58.744C297.912 63.4667 295.612 65.828 291.012 65.828Z" fill="#FFD93C"/>
<path d="M355.386 66.012C351.584 66.012 348.425 65.3067 345.91 63.896C343.396 62.4854 341.525 60.3693 340.298 57.548C339.133 54.6653 338.55 51.108 338.55 46.876V26.084C338.55 23.7534 339.133 22.0054 340.298 20.84C341.525 19.6747 343.242 19.092 345.45 19.092C347.658 19.092 349.376 19.6747 350.602 20.84C351.829 22.0054 352.442 23.7534 352.442 26.084V47.244C352.442 49.9427 352.994 51.9667 354.098 53.316C355.202 54.604 356.95 55.248 359.342 55.248C361.98 55.248 364.126 54.328 365.782 52.488C367.5 50.5867 368.358 48.1027 368.358 45.036V26.084C368.358 23.7534 368.941 22.0054 370.106 20.84C371.333 19.6747 373.05 19.092 375.258 19.092C377.528 19.092 379.245 19.6747 380.41 20.84C381.637 22.0054 382.25 23.7534 382.25 26.084V58.744C382.25 63.4667 380.012 65.828 375.534 65.828C373.326 65.828 371.64 65.2147 370.474 63.988C369.309 62.7614 368.726 61.0134 368.726 58.744V52.58L370.106 56.168C368.757 59.296 366.825 61.7187 364.31 63.436C361.796 65.1533 358.821 66.012 355.386 66.012Z" fill="#FFD93C"/>
<path d="M2.27498 88.125C1.60831 88.125 1.07498 87.925 0.674976 87.525C0.291642 87.125 0.0999756 86.6083 0.0999756 85.975C0.0999756 85.3583 0.291642 84.8583 0.674976 84.475C1.07498 84.075 1.60831 83.875 2.27498 83.875C2.94164 83.875 3.45831 84.075 3.82498 84.475C4.20831 84.8583 4.39998 85.3583 4.39998 85.975C4.39998 86.6083 4.20831 87.125 3.82498 87.525C3.45831 87.925 2.94164 88.125 2.27498 88.125Z" fill="#FFD93C"/>
<path d="M12.5285 88.275C11.1952 88.275 10.0285 88.0167 9.02849 87.5C8.04516 86.9667 7.28682 86.2167 6.75349 85.25C6.22016 84.2833 5.95349 83.1417 5.95349 81.825C5.95349 80.8417 6.10349 79.9584 6.40349 79.175C6.70349 78.3917 7.13682 77.725 7.70349 77.175C8.28682 76.625 8.98682 76.2084 9.80349 75.925C10.6202 75.625 11.5285 75.475 12.5285 75.475C13.0452 75.475 13.5952 75.5417 14.1785 75.675C14.7618 75.7917 15.3368 76 15.9035 76.3C16.2368 76.45 16.4618 76.6667 16.5785 76.95C16.7118 77.2167 16.7618 77.5 16.7285 77.8C16.6952 78.0834 16.5868 78.3417 16.4035 78.575C16.2368 78.7917 16.0202 78.9417 15.7535 79.025C15.4868 79.0917 15.1868 79.0417 14.8535 78.875C14.5368 78.6917 14.2035 78.5583 13.8535 78.475C13.5202 78.3917 13.2035 78.35 12.9035 78.35C12.4035 78.35 11.9618 78.4333 11.5785 78.6C11.1952 78.75 10.8702 78.975 10.6035 79.275C10.3535 79.5583 10.1535 79.9167 10.0035 80.35C9.87016 80.7833 9.80349 81.2833 9.80349 81.85C9.80349 82.95 10.0702 83.8167 10.6035 84.45C11.1535 85.0667 11.9202 85.375 12.9035 85.375C13.2035 85.375 13.5202 85.3417 13.8535 85.275C14.1868 85.1917 14.5202 85.0583 14.8535 84.875C15.1868 84.7083 15.4868 84.6667 15.7535 84.75C16.0202 84.8333 16.2285 84.9917 16.3785 85.225C16.5452 85.4417 16.6368 85.7 16.6535 86C16.6868 86.2833 16.6368 86.5667 16.5035 86.85C16.3868 87.1167 16.1702 87.325 15.8535 87.475C15.2868 87.7583 14.7202 87.9583 14.1535 88.075C13.5868 88.2083 13.0452 88.275 12.5285 88.275Z" fill="#FFD93C"/>
<path d="M24.1478 88.275C22.8312 88.275 21.6812 88.0167 20.6978 87.5C19.7312 86.9833 18.9812 86.2417 18.4478 85.275C17.9145 84.3084 17.6478 83.1667 17.6478 81.85C17.6478 80.8667 17.7978 79.9833 18.0978 79.2C18.3978 78.4167 18.8312 77.75 19.3978 77.2C19.9812 76.6333 20.6728 76.2084 21.4728 75.925C22.2728 75.625 23.1645 75.475 24.1478 75.475C25.4645 75.475 26.6062 75.7333 27.5728 76.25C28.5562 76.7667 29.3145 77.5 29.8478 78.45C30.3978 79.4 30.6728 80.5333 30.6728 81.85C30.6728 82.85 30.5145 83.7417 30.1978 84.525C29.8978 85.3084 29.4645 85.9834 28.8978 86.55C28.3312 87.1167 27.6395 87.55 26.8228 87.85C26.0228 88.1333 25.1312 88.275 24.1478 88.275ZM24.1478 85.45C24.6978 85.45 25.1728 85.3167 25.5728 85.05C25.9728 84.7834 26.2895 84.3917 26.5228 83.875C26.7562 83.3417 26.8728 82.6667 26.8728 81.85C26.8728 80.6333 26.6228 79.7417 26.1228 79.175C25.6228 78.5917 24.9645 78.3 24.1478 78.3C23.6145 78.3 23.1395 78.425 22.7228 78.675C22.3228 78.925 22.0062 79.3167 21.7728 79.85C21.5562 80.3667 21.4478 81.0333 21.4478 81.85C21.4478 83.0667 21.6978 83.975 22.1978 84.575C22.6978 85.1583 23.3478 85.45 24.1478 85.45Z" fill="#FFD93C"/>
<path d="M34.9195 88.225C34.3028 88.225 33.8278 88.0583 33.4945 87.725C33.1778 87.3917 33.0195 86.9167 33.0195 86.3V77.425C33.0195 76.8084 33.1778 76.3417 33.4945 76.025C33.8278 75.6917 34.2862 75.525 34.8695 75.525C35.4695 75.525 35.9278 75.6917 36.2445 76.025C36.5612 76.3417 36.7195 76.8084 36.7195 77.425V79.025L36.4445 78.025C36.7778 77.2584 37.2945 76.6417 37.9945 76.175C38.6945 75.7084 39.5195 75.475 40.4695 75.475C41.4195 75.475 42.2112 75.7 42.8445 76.15C43.4778 76.6 43.9278 77.2917 44.1945 78.225H43.8445C44.2112 77.375 44.7695 76.7083 45.5195 76.225C46.2862 75.725 47.1612 75.475 48.1445 75.475C49.0945 75.475 49.8695 75.6667 50.4695 76.05C51.0862 76.4167 51.5445 76.9833 51.8445 77.75C52.1445 78.5 52.2945 79.4583 52.2945 80.625V86.3C52.2945 86.9167 52.1278 87.3917 51.7945 87.725C51.4778 88.0583 51.0195 88.225 50.4195 88.225C49.8028 88.225 49.3278 88.0583 48.9945 87.725C48.6778 87.3917 48.5195 86.9167 48.5195 86.3V80.75C48.5195 79.9333 48.3862 79.3417 48.1195 78.975C47.8695 78.5917 47.4362 78.4 46.8195 78.4C46.1028 78.4 45.5445 78.65 45.1445 79.15C44.7445 79.65 44.5445 80.3584 44.5445 81.275V86.3C44.5445 86.9167 44.3778 87.3917 44.0445 87.725C43.7278 88.0583 43.2695 88.225 42.6695 88.225C42.0695 88.225 41.6028 88.0583 41.2695 87.725C40.9362 87.3917 40.7695 86.9167 40.7695 86.3V80.75C40.7695 79.9333 40.6362 79.3417 40.3695 78.975C40.1195 78.5917 39.6862 78.4 39.0695 78.4C38.3528 78.4 37.7945 78.65 37.3945 79.15C36.9945 79.65 36.7945 80.3584 36.7945 81.275V86.3C36.7945 87.5834 36.1695 88.225 34.9195 88.225Z" fill="#FFD93C"/>
</svg>
