<svg width="52" height="52" viewBox="0 0 52 52" fill="none" xmlns="http://www.w3.org/2000/svg">
<path fill-rule="evenodd" clip-rule="evenodd" d="M26.2427 40.7445C26.1606 40.8386 26.0858 40.9239 26.0189 40.9999C25.9527 40.9259 25.8791 40.8431 25.7984 40.7518C25.4003 40.3016 24.8307 39.6453 24.1467 38.8233C22.7783 37.1785 20.9547 34.8732 19.1322 32.2295C17.3087 29.5842 15.4932 26.6101 14.1353 23.6272C12.7742 20.6375 11.8913 17.6785 11.8913 15.0528C11.8913 7.32771 18.2485 1 26.0217 1C33.795 1 40.1522 7.32771 40.1522 15.0528C40.1522 17.6162 39.2702 20.544 37.9085 23.5239C36.5503 26.4961 34.7344 29.4784 32.9104 32.1394C31.0875 34.7988 29.2635 37.1274 27.8948 38.7914C27.2107 39.6231 26.6409 40.2881 26.2427 40.7445ZM26.0217 4.77847C20.3439 4.77847 15.6957 9.39796 15.6957 15.0528C15.6957 17.7536 17.0404 21.1413 18.9112 24.5581C20.794 27.9968 23.2573 31.5482 25.5899 34.6012L26.013 35.1549L26.447 34.6097C28.7851 31.6719 31.2499 28.1179 33.1332 24.6476C35.0046 21.1993 36.3478 17.7518 36.3478 15.0528C36.3478 9.39796 31.6996 4.77847 26.0217 4.77847ZM21.6739 15.0528C21.6739 12.6797 23.629 10.7308 26.0217 10.7308C28.4145 10.7308 30.3696 12.6797 30.3696 15.0528C30.3696 17.4259 28.4145 19.3747 26.0217 19.3747C23.629 19.3747 21.6739 17.4259 21.6739 15.0528ZM37.0967 35.9951L37.966 34.6981C40.1802 35.619 41.926 36.6841 43.1293 37.8539C44.3998 39.0889 45.0435 40.416 45.0435 41.8126C45.0435 44.169 43.0892 46.4619 39.5977 48.1984C36.1409 49.9176 31.3358 51 26.0217 51C20.7077 51 15.9025 49.9176 12.4458 48.1984C8.95427 46.4619 7 44.169 7 41.8126C7 40.4147 7.6449 39.086 8.88803 37.8495C10.0601 36.6836 11.7433 35.6229 13.8376 34.7051L14.715 36.0141C13.6944 36.5625 12.7999 37.1689 12.1262 37.8391C11.3333 38.6278 10.8043 39.5488 10.8043 40.5963C10.8043 41.6371 11.3115 42.5745 12.1254 43.3716C12.937 44.1665 14.0824 44.8534 15.4514 45.4169C18.1918 46.5449 21.9339 47.2215 26.0217 47.2215C30.1096 47.2215 33.8516 46.5449 36.592 45.4169C37.9611 44.8534 39.1065 44.1665 39.9181 43.3716C40.732 42.5745 41.2391 41.6371 41.2391 40.5963C41.2391 39.5462 40.7078 38.623 39.8787 37.8313C39.1712 37.1557 38.2177 36.546 37.0967 35.9951Z" fill="black"/>
</svg>
