<svg width="451" height="470" viewBox="0 0 451 470" fill="none" xmlns="http://www.w3.org/2000/svg">
<path d="M24.5351 463.44C23.4718 463.44 22.6468 463.147 22.0601 462.56C21.5101 461.973 21.2351 461.13 21.2351 460.03V427.305C21.2351 426.168 21.5101 425.307 22.0601 424.72C22.6468 424.097 23.3984 423.785 24.3151 423.785C25.1584 423.785 25.7818 423.95 26.1851 424.28C26.6251 424.573 27.1384 425.087 27.7251 425.82L48.7901 453.155H47.3601V427.14C47.3601 426.077 47.6351 425.252 48.1851 424.665C48.7718 424.078 49.5968 423.785 50.6601 423.785C51.7234 423.785 52.5301 424.078 53.0801 424.665C53.6301 425.252 53.9051 426.077 53.9051 427.14V460.14C53.9051 461.167 53.6484 461.973 53.1351 462.56C52.6218 463.147 51.9251 463.44 51.0451 463.44C50.2018 463.44 49.5234 463.275 49.0101 462.945C48.5334 462.615 48.0018 462.083 47.4151 461.35L26.4051 434.015H27.7801V460.03C27.7801 461.13 27.5051 461.973 26.9551 462.56C26.4051 463.147 25.5984 463.44 24.5351 463.44Z" fill="#7D7D7D"/>
<path d="M73.9827 463.55C71.196 463.55 68.776 462.982 66.7227 461.845C64.6694 460.708 63.0744 459.095 61.9377 457.005C60.801 454.878 60.2327 452.385 60.2327 449.525C60.2327 447.362 60.5444 445.437 61.1677 443.75C61.8277 442.027 62.7627 440.56 63.9727 439.35C65.1827 438.103 66.631 437.168 68.3177 436.545C70.0044 435.885 71.8927 435.555 73.9827 435.555C76.7694 435.555 79.1894 436.123 81.2427 437.26C83.296 438.397 84.891 440.01 86.0277 442.1C87.1644 444.19 87.7327 446.665 87.7327 449.525C87.7327 451.688 87.4027 453.632 86.7427 455.355C86.1193 457.078 85.2027 458.563 83.9927 459.81C82.7827 461.02 81.3344 461.955 79.6477 462.615C77.961 463.238 76.0727 463.55 73.9827 463.55ZM73.9827 458.325C75.3394 458.325 76.531 457.995 77.5577 457.335C78.5844 456.675 79.3727 455.703 79.9227 454.42C80.5094 453.1 80.8027 451.468 80.8027 449.525C80.8027 446.592 80.1794 444.41 78.9327 442.98C77.686 441.513 76.036 440.78 73.9827 440.78C72.626 440.78 71.4344 441.11 70.4077 441.77C69.381 442.393 68.5744 443.365 67.9877 444.685C67.4377 445.968 67.1627 447.582 67.1627 449.525C67.1627 452.422 67.786 454.622 69.0327 456.125C70.2794 457.592 71.9294 458.325 73.9827 458.325Z" fill="#7D7D7D"/>
<path d="M117.194 463.55C115.25 463.55 113.509 463.183 111.969 462.45C110.465 461.68 109.274 460.653 108.394 459.37C107.55 458.087 107.129 456.638 107.129 455.025C107.129 453.045 107.642 451.487 108.669 450.35C109.695 449.177 111.364 448.333 113.674 447.82C115.984 447.307 119.082 447.05 122.969 447.05H125.719V451.01H123.024C120.75 451.01 118.935 451.12 117.579 451.34C116.222 451.56 115.25 451.945 114.664 452.495C114.114 453.008 113.839 453.742 113.839 454.695C113.839 455.905 114.26 456.895 115.104 457.665C115.947 458.435 117.12 458.82 118.624 458.82C119.834 458.82 120.897 458.545 121.814 457.995C122.767 457.408 123.519 456.62 124.069 455.63C124.619 454.64 124.894 453.503 124.894 452.22V445.895C124.894 444.062 124.49 442.742 123.684 441.935C122.877 441.128 121.52 440.725 119.614 440.725C118.55 440.725 117.395 440.853 116.149 441.11C114.939 441.367 113.655 441.807 112.299 442.43C111.602 442.76 110.979 442.852 110.429 442.705C109.915 442.558 109.512 442.265 109.219 441.825C108.925 441.348 108.779 440.835 108.779 440.285C108.779 439.735 108.925 439.203 109.219 438.69C109.512 438.14 110.007 437.737 110.704 437.48C112.39 436.783 114.004 436.288 115.544 435.995C117.12 435.702 118.55 435.555 119.834 435.555C122.474 435.555 124.637 435.958 126.324 436.765C128.047 437.572 129.33 438.8 130.174 440.45C131.017 442.063 131.439 444.153 131.439 446.72V459.92C131.439 461.057 131.164 461.937 130.614 462.56C130.064 463.147 129.275 463.44 128.249 463.44C127.222 463.44 126.415 463.147 125.829 462.56C125.279 461.937 125.004 461.057 125.004 459.92V457.28H125.444C125.187 458.563 124.674 459.682 123.904 460.635C123.17 461.552 122.235 462.267 121.099 462.78C119.962 463.293 118.66 463.55 117.194 463.55Z" fill="#7D7D7D"/>
<path d="M150.847 463.55C148.024 463.55 145.567 462.982 143.477 461.845C141.387 460.672 139.774 459.022 138.637 456.895C137.5 454.768 136.932 452.275 136.932 449.415C136.932 447.252 137.244 445.327 137.867 443.64C138.527 441.917 139.462 440.468 140.672 439.295C141.882 438.085 143.349 437.168 145.072 436.545C146.795 435.885 148.72 435.555 150.847 435.555C152.057 435.555 153.359 435.72 154.752 436.05C156.182 436.38 157.52 436.93 158.767 437.7C159.354 438.067 159.739 438.507 159.922 439.02C160.105 439.533 160.142 440.065 160.032 440.615C159.922 441.128 159.684 441.587 159.317 441.99C158.987 442.357 158.565 442.595 158.052 442.705C157.539 442.778 156.97 442.65 156.347 442.32C155.54 441.843 154.715 441.495 153.872 441.275C153.029 441.018 152.222 440.89 151.452 440.89C150.242 440.89 149.179 441.092 148.262 441.495C147.345 441.862 146.557 442.412 145.897 443.145C145.274 443.842 144.797 444.722 144.467 445.785C144.137 446.848 143.972 448.077 143.972 449.47C143.972 452.183 144.614 454.328 145.897 455.905C147.217 457.445 149.069 458.215 151.452 458.215C152.222 458.215 153.01 458.105 153.817 457.885C154.66 457.665 155.504 457.317 156.347 456.84C156.97 456.51 157.52 456.4 157.997 456.51C158.51 456.62 158.932 456.877 159.262 457.28C159.592 457.647 159.794 458.105 159.867 458.655C159.94 459.168 159.867 459.682 159.647 460.195C159.464 460.708 159.097 461.13 158.547 461.46C157.337 462.193 156.054 462.725 154.697 463.055C153.34 463.385 152.057 463.55 150.847 463.55Z" fill="#7D7D7D"/>
<path d="M176.787 463.55C174.403 463.55 172.405 463.147 170.792 462.34C169.215 461.533 168.042 460.36 167.272 458.82C166.502 457.243 166.117 455.3 166.117 452.99V441.275H163.257C162.377 441.275 161.698 441.055 161.222 440.615C160.745 440.138 160.507 439.497 160.507 438.69C160.507 437.847 160.745 437.205 161.222 436.765C161.698 436.325 162.377 436.105 163.257 436.105H166.117V431.1C166.117 429.963 166.41 429.102 166.997 428.515C167.62 427.928 168.482 427.635 169.582 427.635C170.682 427.635 171.525 427.928 172.112 428.515C172.698 429.102 172.992 429.963 172.992 431.1V436.105H178.822C179.702 436.105 180.38 436.325 180.857 436.765C181.333 437.205 181.572 437.847 181.572 438.69C181.572 439.497 181.333 440.138 180.857 440.615C180.38 441.055 179.702 441.275 178.822 441.275H172.992V452.605C172.992 454.365 173.377 455.685 174.147 456.565C174.917 457.445 176.163 457.885 177.887 457.885C178.51 457.885 179.06 457.83 179.537 457.72C180.013 457.61 180.435 457.537 180.802 457.5C181.242 457.463 181.608 457.61 181.902 457.94C182.195 458.233 182.342 458.857 182.342 459.81C182.342 460.543 182.213 461.203 181.957 461.79C181.737 462.34 181.315 462.725 180.692 462.945C180.215 463.092 179.592 463.22 178.822 463.33C178.052 463.477 177.373 463.55 176.787 463.55Z" fill="#7D7D7D"/>
<path d="M189.683 463.385C188.583 463.385 187.74 463.055 187.153 462.395C186.567 461.735 186.273 460.818 186.273 459.645V439.46C186.273 438.25 186.567 437.333 187.153 436.71C187.74 436.05 188.583 435.72 189.683 435.72C190.783 435.72 191.627 436.05 192.213 436.71C192.837 437.333 193.148 438.25 193.148 439.46V459.645C193.148 460.818 192.855 461.735 192.268 462.395C191.682 463.055 190.82 463.385 189.683 463.385ZM189.683 430.605C188.4 430.605 187.392 430.293 186.658 429.67C185.962 429.01 185.613 428.112 185.613 426.975C185.613 425.802 185.962 424.903 186.658 424.28C187.392 423.657 188.4 423.345 189.683 423.345C191.003 423.345 192.012 423.657 192.708 424.28C193.405 424.903 193.753 425.802 193.753 426.975C193.753 428.112 193.405 429.01 192.708 429.67C192.012 430.293 191.003 430.605 189.683 430.605Z" fill="#7D7D7D"/>
<path d="M211.182 463.44C210.265 463.44 209.459 463.202 208.762 462.725C208.102 462.248 207.552 461.515 207.112 460.525L198.367 440.23C198.037 439.423 197.909 438.672 197.982 437.975C198.092 437.278 198.422 436.728 198.972 436.325C199.559 435.885 200.347 435.665 201.337 435.665C202.18 435.665 202.859 435.867 203.372 436.27C203.885 436.637 204.344 437.352 204.747 438.415L212.172 456.95H210.522L218.167 438.36C218.57 437.333 219.029 436.637 219.542 436.27C220.092 435.867 220.825 435.665 221.742 435.665C222.549 435.665 223.19 435.885 223.667 436.325C224.144 436.728 224.437 437.278 224.547 437.975C224.657 438.635 224.529 439.368 224.162 440.175L215.252 460.525C214.849 461.515 214.299 462.248 213.602 462.725C212.942 463.202 212.135 463.44 211.182 463.44Z" fill="#7D7D7D"/>
<path d="M242.014 463.55C238.97 463.55 236.349 462.982 234.149 461.845C231.949 460.708 230.244 459.095 229.034 457.005C227.86 454.915 227.274 452.44 227.274 449.58C227.274 446.793 227.842 444.355 228.979 442.265C230.152 440.175 231.747 438.543 233.764 437.37C235.817 436.16 238.145 435.555 240.749 435.555C242.655 435.555 244.36 435.867 245.864 436.49C247.404 437.113 248.705 438.012 249.769 439.185C250.869 440.358 251.694 441.788 252.244 443.475C252.83 445.125 253.124 446.995 253.124 449.085C253.124 449.745 252.885 450.258 252.409 450.625C251.969 450.955 251.327 451.12 250.484 451.12H232.829V447.16H248.284L247.404 447.985C247.404 446.298 247.147 444.887 246.634 443.75C246.157 442.613 245.442 441.752 244.489 441.165C243.572 440.542 242.417 440.23 241.024 440.23C239.484 440.23 238.164 440.597 237.064 441.33C236 442.027 235.175 443.035 234.589 444.355C234.039 445.638 233.764 447.178 233.764 448.975V449.36C233.764 452.367 234.46 454.622 235.854 456.125C237.284 457.592 239.374 458.325 242.124 458.325C243.077 458.325 244.14 458.215 245.314 457.995C246.524 457.738 247.66 457.317 248.724 456.73C249.494 456.29 250.172 456.107 250.759 456.18C251.345 456.217 251.804 456.418 252.134 456.785C252.5 457.152 252.72 457.61 252.794 458.16C252.867 458.673 252.757 459.205 252.464 459.755C252.207 460.305 251.749 460.782 251.089 461.185C249.805 461.992 248.32 462.597 246.634 463C244.984 463.367 243.444 463.55 242.014 463.55Z" fill="#7D7D7D"/>
<path d="M285.765 463.55C282.978 463.55 280.558 462.982 278.505 461.845C276.452 460.708 274.857 459.095 273.72 457.005C272.583 454.878 272.015 452.385 272.015 449.525C272.015 447.362 272.327 445.437 272.95 443.75C273.61 442.027 274.545 440.56 275.755 439.35C276.965 438.103 278.413 437.168 280.1 436.545C281.787 435.885 283.675 435.555 285.765 435.555C288.552 435.555 290.972 436.123 293.025 437.26C295.078 438.397 296.673 440.01 297.81 442.1C298.947 444.19 299.515 446.665 299.515 449.525C299.515 451.688 299.185 453.632 298.525 455.355C297.902 457.078 296.985 458.563 295.775 459.81C294.565 461.02 293.117 461.955 291.43 462.615C289.743 463.238 287.855 463.55 285.765 463.55ZM285.765 458.325C287.122 458.325 288.313 457.995 289.34 457.335C290.367 456.675 291.155 455.703 291.705 454.42C292.292 453.1 292.585 451.468 292.585 449.525C292.585 446.592 291.962 444.41 290.715 442.98C289.468 441.513 287.818 440.78 285.765 440.78C284.408 440.78 283.217 441.11 282.19 441.77C281.163 442.393 280.357 443.365 279.77 444.685C279.22 445.968 278.945 447.582 278.945 449.525C278.945 452.422 279.568 454.622 280.815 456.125C282.062 457.592 283.712 458.325 285.765 458.325Z" fill="#7D7D7D"/>
<path d="M308.709 463.44C307.573 463.44 306.693 463.147 306.069 462.56C305.483 461.937 305.189 461.057 305.189 459.92V439.13C305.189 437.993 305.483 437.132 306.069 436.545C306.656 435.958 307.481 435.665 308.544 435.665C309.608 435.665 310.433 435.958 311.019 436.545C311.606 437.132 311.899 437.993 311.899 439.13V442.595H311.349C311.863 440.395 312.871 438.727 314.374 437.59C315.878 436.453 317.876 435.775 320.369 435.555C321.139 435.482 321.744 435.683 322.184 436.16C322.661 436.6 322.936 437.297 323.009 438.25C323.083 439.167 322.863 439.918 322.349 440.505C321.873 441.055 321.139 441.385 320.149 441.495L318.939 441.605C316.703 441.825 315.016 442.522 313.879 443.695C312.743 444.832 312.174 446.445 312.174 448.535V459.92C312.174 461.057 311.881 461.937 311.294 462.56C310.708 463.147 309.846 463.44 308.709 463.44Z" fill="#7D7D7D"/>
<path d="M336.638 463.55C334.291 463.55 332.219 462.982 330.423 461.845C328.663 460.708 327.288 459.095 326.298 457.005C325.308 454.878 324.813 452.385 324.813 449.525C324.813 446.628 325.308 444.153 326.298 442.1C327.288 440.01 328.663 438.397 330.423 437.26C332.219 436.123 334.291 435.555 336.638 435.555C338.874 435.555 340.818 436.105 342.468 437.205C344.154 438.305 345.291 439.753 345.878 441.55H345.273V427.25C345.273 426.113 345.566 425.252 346.153 424.665C346.739 424.078 347.583 423.785 348.683 423.785C349.783 423.785 350.626 424.078 351.213 424.665C351.836 425.252 352.148 426.113 352.148 427.25V459.92C352.148 461.057 351.854 461.937 351.268 462.56C350.681 463.147 349.838 463.44 348.738 463.44C347.638 463.44 346.794 463.147 346.208 462.56C345.621 461.937 345.328 461.057 345.328 459.92V455.63L345.933 457.28C345.383 459.187 344.264 460.708 342.578 461.845C340.891 462.982 338.911 463.55 336.638 463.55ZM338.563 458.325C339.919 458.325 341.111 457.995 342.138 457.335C343.164 456.675 343.953 455.703 344.503 454.42C345.089 453.1 345.383 451.468 345.383 449.525C345.383 446.592 344.759 444.41 343.513 442.98C342.266 441.513 340.616 440.78 338.563 440.78C337.206 440.78 336.014 441.11 334.988 441.77C333.961 442.393 333.154 443.365 332.568 444.685C332.018 445.968 331.743 447.582 331.743 449.525C331.743 452.422 332.366 454.622 333.613 456.125C334.859 457.592 336.509 458.325 338.563 458.325Z" fill="#7D7D7D"/>
<path d="M372.531 463.55C369.488 463.55 366.866 462.982 364.666 461.845C362.466 460.708 360.761 459.095 359.551 457.005C358.378 454.915 357.791 452.44 357.791 449.58C357.791 446.793 358.36 444.355 359.496 442.265C360.67 440.175 362.265 438.543 364.281 437.37C366.335 436.16 368.663 435.555 371.266 435.555C373.173 435.555 374.878 435.867 376.381 436.49C377.921 437.113 379.223 438.012 380.286 439.185C381.386 440.358 382.211 441.788 382.761 443.475C383.348 445.125 383.641 446.995 383.641 449.085C383.641 449.745 383.403 450.258 382.926 450.625C382.486 450.955 381.845 451.12 381.001 451.12H363.346V447.16H378.801L377.921 447.985C377.921 446.298 377.665 444.887 377.151 443.75C376.675 442.613 375.96 441.752 375.006 441.165C374.09 440.542 372.935 440.23 371.541 440.23C370.001 440.23 368.681 440.597 367.581 441.33C366.518 442.027 365.693 443.035 365.106 444.355C364.556 445.638 364.281 447.178 364.281 448.975V449.36C364.281 452.367 364.978 454.622 366.371 456.125C367.801 457.592 369.891 458.325 372.641 458.325C373.595 458.325 374.658 458.215 375.831 457.995C377.041 457.738 378.178 457.317 379.241 456.73C380.011 456.29 380.69 456.107 381.276 456.18C381.863 456.217 382.321 456.418 382.651 456.785C383.018 457.152 383.238 457.61 383.311 458.16C383.385 458.673 383.275 459.205 382.981 459.755C382.725 460.305 382.266 460.782 381.606 461.185C380.323 461.992 378.838 462.597 377.151 463C375.501 463.367 373.961 463.55 372.531 463.55Z" fill="#7D7D7D"/>
<path d="M392.606 463.44C391.469 463.44 390.589 463.147 389.966 462.56C389.379 461.937 389.086 461.057 389.086 459.92V439.13C389.086 437.993 389.379 437.132 389.966 436.545C390.552 435.958 391.378 435.665 392.441 435.665C393.504 435.665 394.329 435.958 394.916 436.545C395.502 437.132 395.796 437.993 395.796 439.13V442.595H395.246C395.759 440.395 396.768 438.727 398.271 437.59C399.774 436.453 401.773 435.775 404.266 435.555C405.036 435.482 405.641 435.683 406.081 436.16C406.558 436.6 406.832 437.297 406.906 438.25C406.979 439.167 406.759 439.918 406.246 440.505C405.769 441.055 405.036 441.385 404.046 441.495L402.836 441.605C400.599 441.825 398.913 442.522 397.776 443.695C396.639 444.832 396.071 446.445 396.071 448.535V459.92C396.071 461.057 395.778 461.937 395.191 462.56C394.604 463.147 393.743 463.44 392.606 463.44Z" fill="#7D7D7D"/>
<path d="M420.2 463.55C418.624 463.55 416.955 463.385 415.195 463.055C413.435 462.725 411.859 462.157 410.465 461.35C409.879 460.983 409.457 460.562 409.2 460.085C408.98 459.572 408.889 459.077 408.925 458.6C408.999 458.087 409.182 457.647 409.475 457.28C409.805 456.913 410.209 456.675 410.685 456.565C411.199 456.455 411.749 456.547 412.335 456.84C413.802 457.537 415.177 458.032 416.46 458.325C417.744 458.582 419.009 458.71 420.255 458.71C422.015 458.71 423.317 458.417 424.16 457.83C425.04 457.207 425.48 456.4 425.48 455.41C425.48 454.567 425.187 453.925 424.6 453.485C424.05 453.008 423.207 452.66 422.07 452.44L416.57 451.395C414.297 450.955 412.555 450.13 411.345 448.92C410.172 447.673 409.585 446.078 409.585 444.135C409.585 442.375 410.062 440.853 411.015 439.57C412.005 438.287 413.362 437.297 415.085 436.6C416.809 435.903 418.789 435.555 421.025 435.555C422.639 435.555 424.142 435.738 425.535 436.105C426.965 436.435 428.34 436.967 429.66 437.7C430.21 437.993 430.577 438.378 430.76 438.855C430.98 439.332 431.035 439.827 430.925 440.34C430.815 440.817 430.595 441.257 430.265 441.66C429.935 442.027 429.514 442.265 429 442.375C428.524 442.448 427.974 442.338 427.35 442.045C426.214 441.458 425.114 441.037 424.05 440.78C423.024 440.523 422.034 440.395 421.08 440.395C419.284 440.395 417.945 440.707 417.065 441.33C416.222 441.953 415.8 442.778 415.8 443.805C415.8 444.575 416.057 445.217 416.57 445.73C417.084 446.243 417.872 446.592 418.935 446.775L424.435 447.82C426.819 448.26 428.615 449.067 429.825 450.24C431.072 451.413 431.695 452.99 431.695 454.97C431.695 457.647 430.65 459.755 428.56 461.295C426.47 462.798 423.684 463.55 420.2 463.55Z" fill="#7D7D7D"/>
<g clip-path="url(#clip0_44_24)">
<path fill-rule="evenodd" clip-rule="evenodd" d="M105.85 47.4899L123.284 47.8204L84.7093 175.085C90.0312 176.407 95.0594 177.986 99.794 179.786C95.1328 178.023 90.2147 176.48 85.0029 175.158C51.1632 167.555 23.196 178.647 0 205.018L28.8848 218.645L151.581 276.565C152.535 269.036 152.976 261.984 152.829 255.336C152.866 256.291 152.939 257.283 152.939 258.275H293.767C293.803 288.502 318.321 312.963 348.527 312.963C378.733 312.963 403.25 288.465 403.287 258.275H449.385C452.578 195.579 422.996 147.355 371.172 142.727H440.907C446.449 142.727 450.963 138.172 450.963 132.663V121.608C450.963 116.135 446.486 111.691 441.054 111.691H440.173V35.9571C440.173 30.9988 436.099 26.9219 431.144 26.9219H301.217C296.262 26.9219 292.188 30.9988 292.188 35.9571V111.655H227.959C221.169 111.434 217.572 114.519 217.536 121.314V142.764V156.794C246.457 179.565 250.861 215.155 224.472 235.209H181.677C180.576 201.088 161.087 180.3 128.716 157.308L148.021 97.7712C155.986 79.26 150.737 65.2297 139.102 55.4232C142.736 43.7436 145.342 33.7534 144.534 25.5997L164.757 29.7868C171.327 31.1457 173.015 33.4963 175.144 27.1423C175.511 26.0405 175.805 24.9753 175.988 23.8735C177.64 15.1688 176.612 15.7565 169.565 14.3975L147.984 10.2105H141.561L133.634 5.76635C128.899 3.04844 123.981 1.43239 118.953 0.771278L112.016 0.330536C104.896 0.330536 96.8945 -1.6528 92.7839 4.92159C92.7105 5.03178 92.6738 5.43579 92.637 6.02345C89.7375 7.01512 87.2418 9.1821 85.37 12.1571C83.0577 15.7565 81.663 20.6781 81.663 26.0405C81.663 31.4028 83.0944 36.3244 85.37 39.9238C87.9391 43.964 91.6461 46.5349 95.9036 46.6451C98.3626 48.4081 102.253 47.4164 105.85 47.4899ZM378.513 89.5073H424.244V97.5508H378.513V89.5073ZM343.755 34.8186H376.788V70.739L359.464 57.2964L343.755 70.739V34.8186ZM378.513 110.442H424.244V118.486H378.513V110.442ZM29.0317 218.755L77.8459 241.894L61.9905 234.621C51.0898 236.935 42.9419 246.632 42.9419 258.201C42.9419 271.534 53.7324 282.332 67.0554 282.332C80.3784 282.332 91.169 271.534 91.169 258.201C91.169 254.088 90.1413 250.231 88.3429 246.815L121.669 262.608C119.43 290.816 95.8302 313 67.0921 313C36.8493 313 12.332 288.465 12.332 258.201C12.2586 242.702 18.6816 228.708 29.0317 218.755ZM92.7472 15.4259C92.9674 22.4778 93.4445 31.5497 93.7748 37.6467C93.1876 37.1325 92.6003 36.4713 92.0865 35.6266C90.545 33.2392 89.6274 29.8235 89.6274 26.0037C89.6274 22.184 90.5817 18.7682 92.0865 16.3809C92.3067 16.0503 92.5269 15.7198 92.7472 15.4259ZM324.45 258.275H372.677C372.64 271.57 361.85 282.295 348.563 282.295C335.277 282.295 324.487 271.57 324.45 258.275Z" fill="#7D7D7D"/>
</g>
<defs>
<clipPath id="clip0_44_24">
<rect width="451" height="313" fill="white"/>
</clipPath>
</defs>
</svg>
