<svg width="52" height="52" viewBox="0 0 52 52" fill="none" xmlns="http://www.w3.org/2000/svg">
<path d="M26 1.5C29.05 1.5 31.9751 2.7116 34.1317 4.86827C36.2884 7.02494 37.5 9.95001 37.5 13C37.5 16.05 36.2884 18.9751 34.1317 21.1317C31.9751 23.2884 29.05 24.5 26 24.5C22.95 24.5 20.0249 23.2884 17.8683 21.1317C15.7116 18.9751 14.5 16.05 14.5 13C14.5 9.95001 15.7116 7.02494 17.8683 4.86827C20.0249 2.7116 22.95 1.5 26 1.5ZM26 34C33.0003 34 39.261 35.4207 43.7161 37.6482C48.2604 39.9204 50.5 42.7826 50.5 45.5C50.5 48.2614 48.2614 50.5 45.5 50.5H6.5C3.73858 50.5 1.5 48.2614 1.5 45.5C1.5 42.7826 3.73956 39.9204 8.28395 37.6482C12.739 35.4207 18.9997 34 26 34Z" stroke="black" stroke-width="3"/>
</svg>
